<svg width="32" height="32" viewBox="0 0 32 32" fill="none" xmlns="http://www.w3.org/2000/svg">
<path fill-rule="evenodd" clip-rule="evenodd" d="M12 4.66634C9.42267 4.66634 7.33333 6.75568 7.33333 9.33301C7.33333 11.9103 9.42267 13.9997 12 13.9997C14.5773 13.9997 16.6667 11.9103 16.6667 9.33301C16.6667 6.75568 14.5773 4.66634 12 4.66634ZM6 9.33301C6 6.0193 8.68629 3.33301 12 3.33301C15.3137 3.33301 18 6.0193 18 9.33301C18 12.6467 15.3137 15.333 12 15.333C8.68629 15.333 6 12.6467 6 9.33301Z" fill="#595E6C"/>
<path fill-rule="evenodd" clip-rule="evenodd" d="M9.55523 19.3333C8.23305 19.3333 6.9795 19.7963 6.06728 20.5991C5.15779 21.3994 4.66634 22.4653 4.66634 23.5556V26C4.66634 26.3682 4.36786 26.6667 3.99967 26.6667C3.63148 26.6667 3.33301 26.3682 3.33301 26V23.5556C3.33301 22.0526 4.01219 20.6315 5.18644 19.5981C6.35795 18.5672 7.93056 18 9.55523 18H15.1108C16.7355 18 18.3081 18.5672 19.4796 19.5981C20.6538 20.6315 21.333 22.0526 21.333 23.5556V26C21.333 26.3682 21.0345 26.6667 20.6663 26.6667C20.2982 26.6667 19.9997 26.3682 19.9997 26V23.5556C19.9997 22.4653 19.5082 21.3994 18.5987 20.5991C17.6865 19.7963 16.433 19.3333 15.1108 19.3333H9.55523Z" fill="#595E6C"/>
<path d="M19.9996 13.7177C20.4122 13.4795 20.9204 13.4795 21.333 13.7177L26.3505 16.6146C26.763 16.8527 27.0171 17.2929 27.0171 17.7693V23.563C27.0171 24.0393 26.763 24.4795 26.3505 24.7177L21.333 27.6146C20.9204 27.8527 20.4122 27.8527 19.9996 27.6146L14.9821 24.7177C14.5696 24.4795 14.3154 24.0393 14.3154 23.563V17.7693C14.3154 17.2929 14.5696 16.8527 14.9821 16.6146L19.9996 13.7177Z" fill="#ECECEE"/>
<path fill-rule="evenodd" clip-rule="evenodd" d="M19.6669 13.141C20.2857 12.7837 21.0481 12.7837 21.6669 13.141L26.6845 16.0379C27.3033 16.3951 27.6845 17.0554 27.6845 17.7699V23.5636C27.6845 24.2782 27.3033 24.9384 26.6845 25.2957L21.6669 28.1926C21.0481 28.5498 20.2857 28.5498 19.6669 28.1926L14.6494 25.2957C14.0306 24.9384 13.6494 24.2782 13.6494 23.5636V17.7699C13.6494 17.0554 14.0306 16.3951 14.6494 16.0379L19.6669 13.141ZM21.0003 14.2957C20.794 14.1766 20.5399 14.1766 20.3336 14.2957L15.3161 17.1926C15.1098 17.3117 14.9827 17.5317 14.9827 17.7699V23.5636C14.9827 23.8018 15.1098 24.0219 15.3161 24.141L20.3336 27.0379C20.5399 27.1569 20.794 27.1569 21.0003 27.0379L26.0178 24.141C26.2241 24.0219 26.3511 23.8018 26.3511 23.5636V17.7699C26.3511 17.5317 26.2241 17.3117 26.0178 17.1926L21.0003 14.2957Z" fill="#595E6C"/>
<path d="M20.6667 23.3333C22.1394 23.3333 23.3333 22.1394 23.3333 20.6667C23.3333 19.1939 22.1394 18 20.6667 18C19.1939 18 18 19.1939 18 20.6667C18 22.1394 19.1939 23.3333 20.6667 23.3333Z" fill="#ECECEE"/>
<path fill-rule="evenodd" clip-rule="evenodd" d="M20.6663 18.6663C19.5618 18.6663 18.6663 19.5618 18.6663 20.6663C18.6663 21.7709 19.5618 22.6663 20.6663 22.6663C21.7709 22.6663 22.6663 21.7709 22.6663 20.6663C22.6663 19.5618 21.7709 18.6663 20.6663 18.6663ZM17.333 20.6663C17.333 18.8254 18.8254 17.333 20.6663 17.333C22.5073 17.333 23.9997 18.8254 23.9997 20.6663C23.9997 22.5073 22.5073 23.9997 20.6663 23.9997C18.8254 23.9997 17.333 22.5073 17.333 20.6663Z" fill="#595E6C"/>
</svg>
