<svg width="20" height="22" viewBox="0 0 20 22" fill="none" xmlns="http://www.w3.org/2000/svg">
<path d="M17.2515 12.45V10.5H15.7515V12.75C15.7489 12.8486 15.7676 12.9465 15.8065 13.0372C15.8453 13.1278 15.9033 13.2089 15.9765 13.275L18.0015 15.3V16.5H1.50154V15.3L3.52654 13.275C3.59974 13.2089 3.65776 13.1278 3.6966 13.0372C3.73544 12.9465 3.75418 12.8486 3.75154 12.75V9C3.75154 7.4087 4.38368 5.88258 5.5089 4.75736C6.63411 3.63214 8.16024 3 9.75154 3C10.8065 3.0002 11.8423 3.28245 12.7515 3.8175V2.1C12.0386 1.78061 11.2789 1.57802 10.5015 1.5V0H9.00154V1.5C7.15478 1.71053 5.44886 2.58944 4.20545 3.97102C2.96203 5.35259 2.26705 7.14135 2.25154 9V12.45L0.226538 14.475C0.153336 14.5411 0.0953171 14.6222 0.0564753 14.7128C0.0176335 14.8035 -0.00110897 14.9014 0.00153774 15V17.25C-0.00509145 17.3502 0.00976443 17.4507 0.0451108 17.5447C0.0804571 17.6387 0.135478 17.724 0.20649 17.795C0.277501 17.8661 0.362865 17.9211 0.456865 17.9564C0.550864 17.9918 0.651331 18.0066 0.751538 18H6.00154C6.00154 18.9946 6.39663 19.9484 7.09989 20.6516C7.80315 21.3549 8.75698 21.75 9.75154 21.75C10.7461 21.75 11.6999 21.3549 12.4032 20.6516C13.1064 19.9484 13.5015 18.9946 13.5015 18H18.7515C18.8517 18.0066 18.9522 17.9918 19.0462 17.9564C19.1402 17.9211 19.2256 17.8661 19.2966 17.795C19.3676 17.724 19.4226 17.6387 19.458 17.5447C19.4933 17.4507 19.5082 17.3502 19.5015 17.25V15C19.5042 14.9014 19.4854 14.8035 19.4466 14.7128C19.4078 14.6222 19.3497 14.5411 19.2765 14.475L17.2515 12.45ZM9.75154 20.25C9.1548 20.25 8.5825 20.0129 8.16055 19.591C7.73859 19.169 7.50154 18.5967 7.50154 18H12.0015C12.0015 18.5967 11.7645 19.169 11.3425 19.591C10.9206 20.0129 10.3483 20.25 9.75154 20.25Z" fill="#545454"/>
<path d="M17 9C18.6569 9 20 7.65685 20 6C20 4.34315 18.6569 3 17 3C15.3431 3 14 4.34315 14 6C14 7.65685 15.3431 9 17 9Z" fill="#545454"/>
</svg>
