<svg width="32" height="32" viewBox="0 0 32 32" fill="none" xmlns="http://www.w3.org/2000/svg">
<path d="M17.333 27.6663V9.33301L25.333 14.6663V27.6663H17.333Z" fill="#C4ECF0"/>
<path fill-rule="evenodd" clip-rule="evenodd" d="M3.33301 27.9997C3.33301 27.6315 3.63148 27.333 3.99967 27.333H27.9997C28.3679 27.333 28.6663 27.6315 28.6663 27.9997C28.6663 28.3679 28.3679 28.6663 27.9997 28.6663H3.99967C3.63148 28.6663 3.33301 28.3679 3.33301 27.9997Z" fill="#3AC1CC"/>
<path fill-rule="evenodd" clip-rule="evenodd" d="M17.6838 3.43257C17.8804 3.55405 18 3.76862 18 3.99968V27.9997C18 28.3679 17.7015 28.6663 17.3333 28.6663C16.9651 28.6663 16.6667 28.3679 16.6667 27.9997V5.07836L7.33333 9.74503V27.9997C7.33333 28.3679 7.03486 28.6663 6.66667 28.6663C6.29848 28.6663 6 28.3679 6 27.9997V9.33301C6 9.08049 6.14267 8.84965 6.36852 8.73672L17.0352 3.40339C17.2418 3.30006 17.4873 3.3111 17.6838 3.43257Z" fill="#3AC1CC"/>
<path fill-rule="evenodd" clip-rule="evenodd" d="M16.7781 8.96295C16.9823 8.6566 17.3962 8.57382 17.7026 8.77805L25.7026 14.1114C25.888 14.235 25.9994 14.4432 25.9994 14.6661V27.9994C25.9994 28.3676 25.7009 28.6661 25.3328 28.6661C24.9646 28.6661 24.6661 28.3676 24.6661 27.9994V15.0229L16.963 9.88745C16.6566 9.68322 16.5738 9.26931 16.7781 8.96295Z" fill="#3AC1CC"/>
<path fill-rule="evenodd" clip-rule="evenodd" d="M11.9997 11.333C12.3679 11.333 12.6663 11.6315 12.6663 11.9997V12.013C12.6663 12.3812 12.3679 12.6797 11.9997 12.6797C11.6315 12.6797 11.333 12.3812 11.333 12.013V11.9997C11.333 11.6315 11.6315 11.333 11.9997 11.333Z" fill="#3AC1CC"/>
<path fill-rule="evenodd" clip-rule="evenodd" d="M11.9997 15.333C12.3679 15.333 12.6663 15.6315 12.6663 15.9997V16.013C12.6663 16.3812 12.3679 16.6797 11.9997 16.6797C11.6315 16.6797 11.333 16.3812 11.333 16.013V15.9997C11.333 15.6315 11.6315 15.333 11.9997 15.333Z" fill="#3AC1CC"/>
<path fill-rule="evenodd" clip-rule="evenodd" d="M11.9997 19.333C12.3679 19.333 12.6663 19.6315 12.6663 19.9997V20.013C12.6663 20.3812 12.3679 20.6797 11.9997 20.6797C11.6315 20.6797 11.333 20.3812 11.333 20.013V19.9997C11.333 19.6315 11.6315 19.333 11.9997 19.333Z" fill="#3AC1CC"/>
<path fill-rule="evenodd" clip-rule="evenodd" d="M11.9997 23.333C12.3679 23.333 12.6663 23.6315 12.6663 23.9997V24.013C12.6663 24.3812 12.3679 24.6797 11.9997 24.6797C11.6315 24.6797 11.333 24.3812 11.333 24.013V23.9997C11.333 23.6315 11.6315 23.333 11.9997 23.333Z" fill="#3AC1CC"/>
</svg>
