<svg width="32" height="32" viewBox="0 0 32 32" fill="none" xmlns="http://www.w3.org/2000/svg">
<path fill-rule="evenodd" clip-rule="evenodd" d="M15.5283 3.52827C15.7886 3.26792 16.2107 3.26792 16.4711 3.52827L28.4711 15.5283C28.6618 15.7189 28.7188 16.0057 28.6156 16.2548C28.5124 16.5039 28.2693 16.6663 27.9997 16.6663H25.333C24.9648 16.6663 24.6664 16.3679 24.6664 15.9997C24.6664 15.6315 24.9648 15.333 25.333 15.333H26.3902L15.9997 4.94248L5.60917 15.333H6.66636C7.03455 15.333 7.33303 15.6315 7.33303 15.9997C7.33303 16.3679 7.03455 16.6663 6.66636 16.6663H3.99969C3.73005 16.6663 3.48696 16.5039 3.38377 16.2548C3.28059 16.0057 3.33762 15.7189 3.52829 15.5283L15.5283 3.52827Z" fill="#3AC1CC"/>
<path d="M12 27.9997V19.9997C12 19.2924 12.281 18.6142 12.781 18.1141C13.2811 17.614 13.9594 17.333 14.6667 17.333H17.3333C18.0406 17.333 18.7189 17.614 19.219 18.1141C19.719 18.6142 20 19.2924 20 19.9997V27.9997" fill="#C4ECF0"/>
<path fill-rule="evenodd" clip-rule="evenodd" d="M14.6663 17.9993C14.1359 17.9993 13.6272 18.2101 13.2521 18.5851C12.8771 18.9602 12.6663 19.4689 12.6663 19.9994V27.9994C12.6663 28.3675 12.3679 28.666 11.9997 28.666C11.6315 28.666 11.333 28.3675 11.333 27.9994V19.9994C11.333 19.1153 11.6842 18.2674 12.3093 17.6423C12.9344 17.0172 13.7823 16.666 14.6663 16.666H17.333C18.2171 16.666 19.0649 17.0172 19.69 17.6423C20.3152 18.2674 20.6663 19.1153 20.6663 19.9994V27.9994C20.6663 28.3675 20.3679 28.666 19.9997 28.666C19.6315 28.666 19.333 28.3675 19.333 27.9994V19.9994C19.333 19.4689 19.1223 18.9602 18.7472 18.5851C18.3721 18.2101 17.8634 17.9993 17.333 17.9993H14.6663Z" fill="#3AC1CC"/>
<path fill-rule="evenodd" clip-rule="evenodd" d="M6.66667 15.333C7.03486 15.333 7.33333 15.6315 7.33333 15.9997V25.333C7.33333 25.8634 7.54405 26.3721 7.91912 26.7472C8.29419 27.1223 8.8029 27.333 9.33333 27.333H22.6667C23.1971 27.333 23.7058 27.1223 24.0809 26.7472C24.456 26.3721 24.6667 25.8634 24.6667 25.333V15.9997C24.6667 15.6315 24.9651 15.333 25.3333 15.333C25.7015 15.333 26 15.6315 26 15.9997V25.333C26 26.2171 25.6488 27.0649 25.0237 27.69C24.3986 28.3152 23.5507 28.6663 22.6667 28.6663H9.33333C8.44928 28.6663 7.60143 28.3152 6.97631 27.69C6.35119 27.0649 6 26.2171 6 25.333V15.9997C6 15.6315 6.29848 15.333 6.66667 15.333Z" fill="#3AC1CC"/>
</svg>
