<svg width="6" height="10" viewBox="0 0 6 10" fill="none" xmlns="http://www.w3.org/2000/svg">
<path fill-rule="evenodd" clip-rule="evenodd" d="M0.484682 0.234438C0.519516 0.199516 0.560898 0.171808 0.606457 0.152904C0.652016 0.133999 0.700857 0.124268 0.750182 0.124268C0.799507 0.124268 0.848348 0.133999 0.893907 0.152904C0.939466 0.171808 0.980848 0.199516 1.01568 0.234438L5.51568 4.73444C5.55061 4.76927 5.57831 4.81065 5.59722 4.85621C5.61612 4.90177 5.62585 4.95061 5.62585 4.99994C5.62585 5.04926 5.61612 5.0981 5.59722 5.14366C5.57831 5.18922 5.55061 5.2306 5.51568 5.26544L1.01568 9.76544C0.945267 9.83585 0.849764 9.87541 0.750182 9.87541C0.6506 9.87541 0.555097 9.83585 0.484682 9.76544C0.414267 9.69502 0.374708 9.59952 0.374708 9.49994C0.374708 9.40035 0.414267 9.30485 0.484682 9.23444L4.71993 4.99994L0.484682 0.765438C0.449759 0.730604 0.422052 0.689222 0.403147 0.643663C0.384243 0.598104 0.374512 0.549263 0.374512 0.499938C0.374512 0.450612 0.384243 0.401772 0.403147 0.356213C0.422052 0.310654 0.449759 0.269272 0.484682 0.234438Z" fill="#7E7E7E"/>
</svg>
