<svg width="32" height="32" viewBox="0 0 32 32" fill="none" xmlns="http://www.w3.org/2000/svg">
<path d="M16 28C22.6274 28 28 22.6274 28 16C28 9.37258 22.6274 4 16 4C9.37258 4 4 9.37258 4 16C4 22.6274 9.37258 28 16 28Z" stroke="#3AC1CC" stroke-linecap="round" stroke-linejoin="round"/>
<path d="M16 22.667V22.6803" stroke="#3AC1CC" stroke-linecap="round" stroke-linejoin="round"/>
<path d="M15.9997 17.9996C15.9751 17.5667 16.0919 17.1376 16.3324 16.7769C16.5728 16.4162 16.924 16.1434 17.333 15.9996C17.8342 15.8079 18.284 15.5025 18.6471 15.1075C19.0102 14.7125 19.2766 14.2385 19.4254 13.723C19.5742 13.2075 19.6014 12.6645 19.5046 12.1367C19.4079 11.609 19.19 11.1108 18.8681 10.6816C18.5462 10.2523 18.129 9.90368 17.6494 9.66306C17.1698 9.42244 16.6409 9.29642 16.1044 9.29494C15.5678 9.29345 15.0382 9.41653 14.5573 9.65448C14.0764 9.89244 13.6573 10.2388 13.333 10.6662" stroke="#3AC1CC" stroke-linecap="round" stroke-linejoin="round"/>
</svg>
