<svg width="38" height="38" viewBox="0 0 38 38" fill="none" xmlns="http://www.w3.org/2000/svg">
<g filter="url(#filter0_ddd)">
<circle cx="19" cy="18" r="16" fill="white"/>
</g>
<path fill-rule="evenodd" clip-rule="evenodd" d="M15.1836 10.1836C15.2417 10.1254 15.3106 10.0792 15.3866 10.0477C15.4625 10.0162 15.5439 10 15.6261 10C15.7083 10 15.7897 10.0162 15.8657 10.0477C15.9416 10.0792 16.0106 10.1254 16.0686 10.1836L23.5686 17.6836C23.6268 17.7417 23.673 17.8106 23.7045 17.8866C23.736 17.9625 23.7522 18.0439 23.7522 18.1261C23.7522 18.2083 23.736 18.2897 23.7045 18.3657C23.673 18.4416 23.6268 18.5106 23.5686 18.5686L16.0686 26.0686C15.9513 26.186 15.7921 26.2519 15.6261 26.2519C15.4601 26.2519 15.301 26.186 15.1836 26.0686C15.0663 25.9513 15.0003 25.7921 15.0003 25.6261C15.0003 25.4601 15.0663 25.301 15.1836 25.1836L22.2424 18.1261L15.1836 11.0686C15.1254 11.0106 15.0792 10.9416 15.0477 10.8657C15.0162 10.7897 15 10.7083 15 10.6261C15 10.5439 15.0162 10.4625 15.0477 10.3866C15.0792 10.3106 15.1254 10.2417 15.1836 10.1836Z" fill="#235A83"/>
<defs>
<filter id="filter0_ddd" x="0" y="0" width="38" height="38" filterUnits="userSpaceOnUse" color-interpolation-filters="sRGB">
<feFlood flood-opacity="0" result="BackgroundImageFix"/>
<feColorMatrix in="SourceAlpha" type="matrix" values="0 0 0 0 0 0 0 0 0 0 0 0 0 0 0 0 0 0 127 0"/>
<feOffset dy="1"/>
<feGaussianBlur stdDeviation="1.5"/>
<feColorMatrix type="matrix" values="0 0 0 0 0 0 0 0 0 0 0 0 0 0 0 0 0 0 0.1 0"/>
<feBlend mode="normal" in2="BackgroundImageFix" result="effect1_dropShadow"/>
<feColorMatrix in="SourceAlpha" type="matrix" values="0 0 0 0 0 0 0 0 0 0 0 0 0 0 0 0 0 0 127 0"/>
<feOffset dy="2"/>
<feGaussianBlur stdDeviation="0.5"/>
<feColorMatrix type="matrix" values="0 0 0 0 0 0 0 0 0 0 0 0 0 0 0 0 0 0 0.05 0"/>
<feBlend mode="normal" in2="effect1_dropShadow" result="effect2_dropShadow"/>
<feColorMatrix in="SourceAlpha" type="matrix" values="0 0 0 0 0 0 0 0 0 0 0 0 0 0 0 0 0 0 127 0"/>
<feOffset dy="1"/>
<feGaussianBlur stdDeviation="0.5"/>
<feColorMatrix type="matrix" values="0 0 0 0 0 0 0 0 0 0 0 0 0 0 0 0 0 0 0.1 0"/>
<feBlend mode="normal" in2="effect2_dropShadow" result="effect3_dropShadow"/>
<feBlend mode="normal" in="SourceGraphic" in2="effect3_dropShadow" result="shape"/>
</filter>
</defs>
</svg>
