<svg width="120" height="102" viewBox="0 0 120 102" fill="none" xmlns="http://www.w3.org/2000/svg">
<path d="M17.5718 91.3381C-5.85726 77.8109 -5.85726 55.8771 17.5718 42.3603C41.0008 28.8434 78.9885 28.8331 102.425 42.3603C125.862 55.8875 125.854 77.8213 102.425 91.3381C78.9963 104.855 41.0034 104.868 17.5718 91.3381Z" fill="#54CBD5"/>
<path d="M77.2395 13.2237L77.198 13.2029L67.3195 7.51734L67.2599 7.48884C62.6446 5.15656 56.4874 5.85883 49.8637 10.1399C36.5593 18.7434 26.4217 38.547 27.2199 54.3728C27.6163 62.2585 30.6587 67.6668 35.2533 70.0458L35.2921 70.0665L45.1732 75.7547L45.2199 75.7806C49.8352 78.1129 55.9976 77.4209 62.6264 73.1347C75.9308 64.5312 86.0685 44.7276 85.2703 28.9018C84.879 21.0109 81.8367 15.6026 77.2395 13.2237Z" fill="#37474F"/>
<path d="M44.8361 75.5716L35.3075 70.0622L35.2608 70.0337C30.6662 67.6496 27.6265 62.2413 27.2274 54.366C26.8724 47.307 28.6941 39.4627 31.9956 32.1782L32.0604 32.0176L41.8767 37.8638C38.5701 45.1483 36.7535 52.9925 37.1085 60.0516C37.4843 67.7714 40.4048 73.1149 44.8361 75.5716Z" fill="#263238"/>
<path d="M62.6333 73.1299C75.9377 64.5263 86.0753 44.7227 85.2772 28.8969C84.479 13.0711 73.0456 7.21964 59.7413 15.8232C46.4369 24.4267 36.2967 44.2303 37.0948 60.0535C37.893 75.8768 49.329 81.7334 62.6333 73.1299Z" fill="#455A64"/>
<path d="M73.8978 11.9961L57.222 46.3506L53.6329 42.4634C52.5627 41.3492 51.0983 40.6991 49.554 40.6529C48.0098 40.6066 46.509 41.1678 45.374 42.2159C44.239 43.264 43.5604 44.7155 43.4838 46.2585C43.4073 47.8015 43.9389 49.313 44.9646 50.4683L54.4207 60.7122C55.4605 61.8419 56.9015 62.5191 58.4348 62.5988C58.5437 62.5988 58.6525 62.5988 58.7613 62.5988C59.0475 62.5985 59.3333 62.5777 59.6165 62.5366C60.5684 62.398 61.4718 62.0285 62.2479 61.4602C63.024 60.8919 63.6491 60.1422 64.0686 59.2766L83.1933 19.887C81.2316 15.5127 77.9664 12.802 73.8978 11.9961Z" fill="#37474F"/>
<path d="M87.442 0.681742C87.3384 0.622139 87.2295 0.565129 87.1207 0.513301C85.8985 -0.0789635 84.4912 -0.162208 83.2077 0.281832C81.9241 0.725873 80.8691 1.66093 80.2742 2.88186L59.0556 46.5888L57.848 45.2931C57.4994 44.9122 57.0938 44.5879 56.6456 44.3316C56.0133 43.9688 53.3234 42.4114 52.888 42.16C51.8269 41.5461 50.5807 41.3331 49.3759 41.5596C48.1711 41.7861 47.0874 42.4371 46.3216 43.3945C45.5559 44.3518 45.1588 45.5521 45.2025 46.7772C45.2462 48.0024 45.7277 49.1713 46.5598 50.0716L56.0159 60.3129C56.3704 60.6976 56.7821 61.0254 57.2364 61.2847C57.8532 61.6346 60.5327 63.1894 60.9733 63.4434C61.5826 63.7962 62.2582 64.0197 62.9577 64.0998C63.6573 64.1799 64.3659 64.115 65.0392 63.909C65.7126 63.703 66.3362 63.3605 66.8713 62.9027C67.4063 62.445 67.8412 61.8818 68.1489 61.2484L93.252 9.54181C93.8164 8.37644 93.9193 7.04078 93.5401 5.8027C93.1609 4.56463 92.3276 3.51571 91.2074 2.86631L87.442 0.681742Z" fill="white"/>
<path opacity="0.15" d="M87.442 0.681742C87.3384 0.622139 87.2295 0.565129 87.1207 0.513301C85.8985 -0.0789635 84.4912 -0.162208 83.2077 0.281832C81.9241 0.725873 80.8691 1.66093 80.2742 2.88186L59.0556 46.5888L57.848 45.2931C57.4994 44.9122 57.0938 44.5879 56.6456 44.3316C56.0133 43.9688 53.3234 42.4114 52.888 42.16C51.8269 41.5461 50.5807 41.3331 49.3759 41.5596C48.1711 41.7861 47.0874 42.4371 46.3216 43.3945C45.5559 44.3518 45.1588 45.5521 45.2025 46.7772C45.2462 48.0024 45.7277 49.1713 46.5598 50.0716L56.0159 60.3129C56.3704 60.6976 56.7821 61.0254 57.2364 61.2847C57.8532 61.6346 60.5327 63.1894 60.9733 63.4434C61.5826 63.7962 62.2582 64.0197 62.9577 64.0998C63.6573 64.1799 64.3659 64.115 65.0392 63.909C65.7126 63.703 66.3362 63.3605 66.8713 62.9027C67.4063 62.445 67.8412 61.8818 68.1489 61.2484L93.252 9.54181C93.8164 8.37644 93.9193 7.04078 93.5401 5.8027C93.1609 4.56463 92.3276 3.51571 91.2074 2.86631L87.442 0.681742Z" fill="black"/>
<path opacity="0.15" d="M60.9621 63.4334C60.5267 63.1743 57.8524 61.6194 57.2278 61.2748C56.7736 61.0153 56.3619 60.6875 56.0073 60.303L46.5512 50.0617C46.1342 49.6067 45.8032 49.0799 45.5742 48.5068L49.3344 50.6759C49.5624 51.2506 49.8954 51.7779 50.3165 52.2307L59.77 62.472C60.1179 62.8494 60.5196 63.1734 60.9621 63.4334Z" fill="black"/>
<path opacity="0.15" d="M85.2229 3.47825C84.7289 3.92156 84.3258 4.45668 84.036 5.05384L62.211 50.0098L59.0547 46.5892L80.2733 2.88223C80.5624 2.28401 80.9666 1.74862 81.4627 1.30664L85.2229 3.47825Z" fill="black"/>
<path d="M90.8847 2.68442C89.6623 2.09357 88.2555 2.01106 86.9724 2.45497C85.6892 2.89887 84.6342 3.83303 84.0382 5.05298L62.2132 50.009L57.8519 45.2822C56.9185 44.3341 55.6528 43.7864 54.3227 43.7553C52.9926 43.7241 51.7027 44.2118 50.7259 45.1151C49.7491 46.0185 49.1623 47.2665 49.0897 48.5949C49.017 49.9234 49.4643 51.228 50.3367 52.2324L59.7902 62.4763C60.3562 63.0885 61.063 63.5534 61.8493 63.8305C62.6356 64.1077 63.4777 64.1888 64.3024 64.0667C65.1272 63.9447 65.9097 63.6232 66.582 63.1302C67.2543 62.6371 67.7962 61.9875 68.1605 61.2376L93.2636 9.53095C93.8552 8.30744 93.9369 6.89916 93.4909 5.61544C93.0448 4.33172 92.1075 3.27753 90.8847 2.68442Z" fill="white"/>
</svg>
