<?xml version="1.0" encoding="utf-8"?>
<!-- Generator: Adobe Illustrator 16.0.0, SVG Export Plug-In . SVG Version: 6.00 Build 0)  -->
<!DOCTYPE svg PUBLIC "-//W3C//DTD SVG 1.1//EN" "http://www.w3.org/Graphics/SVG/1.1/DTD/svg11.dtd">
<svg version="1.1" id="Layer_1" xmlns="http://www.w3.org/2000/svg" xmlns:xlink="http://www.w3.org/1999/xlink" x="0px" y="0px"
	 width="93px" height="4px" viewBox="0 0 93 4" enable-background="new 0 0 93 4" xml:space="preserve">
<path fill="#C4ECF0" d="M2,0h16.016c1.104,0,2,0.896,2,2l0,0c0,1.104-0.896,2-2,2H2C0.896,4,0,3.104,0,2l0,0C0,0.896,0.896,0,2,0z"
	/>
<path fill="#C4ECF0" d="M26.019,0h16.016c1.104,0,2,0.896,2,2l0,0c0,1.104-0.896,2-2,2H26.019c-1.104,0-2-0.896-2-2l0,0
	C24.019,0.896,24.915,0,26.019,0z"/>
<path fill="#C4ECF0" d="M50.039,0h16.016c1.104,0,2,0.896,2,2l0,0c0,1.104-0.896,2-2,2H50.039c-1.105,0-2-0.896-2-2l0,0
	C48.039,0.896,48.934,0,50.039,0z"/>
<path fill="#C4ECF0" d="M74.057,0h16.017c1.104,0,2,0.896,2,2l0,0c0,1.104-0.896,2-2,2H74.057c-1.104,0-2-0.896-2-2l0,0
	C72.057,0.896,72.953,0,74.057,0z"/>
</svg>
