<?xml version="1.0" encoding="utf-8"?>
<!-- Generator: Adobe Illustrator 16.0.0, SVG Export Plug-In . SVG Version: 6.00 Build 0)  -->
<!DOCTYPE svg PUBLIC "-//W3C//DTD SVG 1.1//EN" "http://www.w3.org/Graphics/SVG/1.1/DTD/svg11.dtd">
<svg version="1.1" id="Layer_1" xmlns="http://www.w3.org/2000/svg" xmlns:xlink="http://www.w3.org/1999/xlink" x="0px" y="0px"
	 width="32px" height="32px" viewBox="0 0 32 32" enable-background="new 0 0 32 32" xml:space="preserve">
<path fill="#595E6C" d="M13.01,10.7c0.368,0,0.667,0.298,0.667,0.667v4.001c0,0.368-0.299,0.667-0.667,0.667
	s-0.667-0.298-0.667-0.667v-4.001C12.344,10.999,12.642,10.7,13.01,10.7z M13.01,17.369c0.368,0,0.667,0.299,0.667,0.667v0.01
	c0,0.368-0.299,0.667-0.667,0.667s-0.667-0.299-0.667-0.667v-0.01C12.344,17.668,12.642,17.369,13.01,17.369z"/>
<path fill="#595E6C" d="M11.646,5.703c0.41-0.242,0.878-0.37,1.354-0.37c0.477,0,0.944,0.127,1.355,0.37
	c0.408,0.241,0.745,0.586,0.976,1l7.099,12.249c0.017,0.027,0.03,0.056,0.042,0.085c0.163,0.402,0.226,0.84,0.181,1.273
	c-0.045,0.433-0.194,0.848-0.437,1.21c-0.242,0.361-0.569,0.659-0.952,0.864c-0.383,0.207-0.811,0.316-1.246,0.319h-0.005H6.007
	c-0.018,0-0.037-0.001-0.055-0.002c-0.029,0.003-0.059,0.003-0.089,0.001c-0.425-0.021-0.838-0.145-1.206-0.359
	C4.29,22.13,3.979,21.83,3.75,21.472s-0.368-0.768-0.406-1.191c-0.038-0.424,0.025-0.851,0.186-1.245
	c0.011-0.028,0.025-0.057,0.041-0.083l7.1-12.249C10.9,6.289,11.237,5.943,11.646,5.703z M5.952,21.373
	c0.019-0.001,0.037-0.002,0.055-0.002H20.01c0.218-0.002,0.431-0.057,0.621-0.16c0.192-0.103,0.355-0.251,0.477-0.432
	c0.121-0.182,0.196-0.389,0.219-0.605c0.021-0.203-0.005-0.407-0.075-0.598l-7.077-12.21l-0.007-0.012
	c-0.115-0.208-0.284-0.382-0.49-0.503C13.473,6.73,13.238,6.667,13,6.667s-0.472,0.063-0.677,0.185
	c-0.206,0.121-0.375,0.295-0.49,0.503l-0.007,0.012L4.75,19.576c-0.069,0.187-0.096,0.386-0.078,0.584
	c0.019,0.212,0.089,0.416,0.203,0.596s0.27,0.329,0.454,0.436c0.184,0.107,0.391,0.17,0.603,0.181
	C5.938,21.372,5.945,21.373,5.952,21.373z"/>
<path fill="#ECECEE" d="M20,15.718c0.412-0.238,0.92-0.238,1.333,0l5.018,2.897c0.413,0.237,0.667,0.678,0.667,1.154v5.793
	c0,0.477-0.254,0.917-0.667,1.155l-5.018,2.897c-0.413,0.237-0.921,0.237-1.333,0l-5.018-2.897
	c-0.412-0.238-0.667-0.679-0.667-1.155V19.77c0-0.477,0.254-0.917,0.667-1.154L20,15.718z"/>
<path fill="#595E6C" d="M19.667,15.141c0.618-0.357,1.382-0.357,2,0l5.018,2.897c0.618,0.356,1,1.018,1,1.731v5.794
	c0,0.715-0.382,1.375-1,1.732l-5.018,2.896c-0.618,0.357-1.382,0.357-2,0l-5.018-2.896c-0.619-0.357-1-1.018-1-1.732V19.77
	c0-0.714,0.381-1.375,1-1.731L19.667,15.141z M21,16.296c-0.206-0.119-0.46-0.119-0.666,0l-5.018,2.896
	c-0.206,0.119-0.333,0.339-0.333,0.577v5.794c0,0.238,0.127,0.458,0.333,0.577l5.018,2.897c0.206,0.118,0.46,0.118,0.666,0
	l5.018-2.897c0.207-0.119,0.334-0.339,0.334-0.577V19.77c0-0.238-0.127-0.458-0.334-0.577L21,16.296z"/>
<path fill="#ECECEE" d="M20.666,25.334c1.473,0,2.668-1.194,2.668-2.668c0-1.473-1.195-2.666-2.668-2.666S18,21.193,18,22.666
	C18,24.14,19.193,25.334,20.666,25.334z"/>
<path fill="#595E6C" d="M20.666,20.666c-1.104,0-2,0.896-2,2c0,1.105,0.896,2,2,2c1.105,0,2-0.895,2-2
	C22.666,21.563,21.771,20.666,20.666,20.666z M17.333,22.666c0-1.841,1.492-3.333,3.333-3.333c1.842,0,3.334,1.492,3.334,3.333
	C24,24.508,22.508,26,20.666,26C18.825,26,17.333,24.508,17.333,22.666z"/>
</svg>
