<svg width="16" height="16" viewBox="0 0 16 16" fill="none" xmlns="http://www.w3.org/2000/svg">
<path fill-rule="evenodd" clip-rule="evenodd" d="M4.5 1.99561C4.63261 1.99561 4.75978 2.04817 4.85355 2.14173C4.94732 2.23529 5 2.36218 5 2.4945V13.4701C5 13.6024 4.94732 13.7293 4.85355 13.8228C4.75978 13.9164 4.63261 13.969 4.5 13.969C4.36739 13.969 4.24021 13.9164 4.14645 13.8228C4.05268 13.7293 4 13.6024 4 13.4701V2.4945C4 2.36218 4.05268 2.23529 4.14645 2.14173C4.24021 2.04817 4.36739 1.99561 4.5 1.99561Z" fill="#C4ECF0"/>
<path fill-rule="evenodd" clip-rule="evenodd" d="M6.85512 11.1236C6.90168 11.17 6.93863 11.225 6.96383 11.2856C6.98904 11.3462 7.00201 11.4112 7.00201 11.4768C7.00201 11.5425 6.98904 11.6074 6.96383 11.668C6.93863 11.7287 6.90168 11.7837 6.85512 11.83L4.85512 13.8256C4.80867 13.8721 4.7535 13.9089 4.69275 13.9341C4.63201 13.9592 4.56689 13.9722 4.50112 13.9722C4.43535 13.9722 4.37023 13.9592 4.30949 13.9341C4.24874 13.9089 4.19357 13.8721 4.14712 13.8256L2.14712 11.83C2.05323 11.7364 2.00049 11.6093 2.00049 11.4768C2.00049 11.3444 2.05323 11.2173 2.14712 11.1236C2.24101 11.0299 2.36834 10.9773 2.50112 10.9773C2.6339 10.9773 2.76123 11.0299 2.85512 11.1236L4.50112 12.767L6.14712 11.1236C6.19357 11.0772 6.24874 11.0403 6.30949 11.0151C6.37023 10.99 6.43535 10.9771 6.50112 10.9771C6.56689 10.9771 6.63201 10.99 6.69275 11.0151C6.7535 11.0403 6.80867 11.0772 6.85512 11.1236Z" fill="#C4ECF0"/>
<path fill-rule="evenodd" clip-rule="evenodd" d="M10.8364 13.9687C10.7038 13.9687 10.5766 13.9162 10.4829 13.8226C10.3891 13.7291 10.3364 13.6022 10.3364 13.4699L10.3364 2.49428C10.3364 2.36197 10.3891 2.23507 10.4829 2.14151C10.5766 2.04796 10.7038 1.99539 10.8364 1.99539C10.969 1.99539 11.0962 2.04796 11.19 2.14151C11.2837 2.23507 11.3364 2.36197 11.3364 2.49428L11.3364 13.4699C11.3364 13.6022 11.2837 13.7291 11.19 13.8226C11.0962 13.9162 10.969 13.9687 10.8364 13.9687Z" fill="#61CDD6"/>
<path fill-rule="evenodd" clip-rule="evenodd" d="M8.4818 4.84171C8.43523 4.79537 8.39829 4.74032 8.37308 4.67971C8.34788 4.6191 8.3349 4.55412 8.3349 4.4885C8.3349 4.42288 8.34788 4.3579 8.37308 4.29729C8.39829 4.23668 8.43523 4.18163 8.4818 4.13529L10.4818 2.13973C10.5282 2.09327 10.5834 2.05641 10.6442 2.03125C10.7049 2.0061 10.77 1.99316 10.8358 1.99316C10.9016 1.99316 10.9667 2.0061 11.0274 2.03125C11.0882 2.05641 11.1433 2.09327 11.1898 2.13973L13.1898 4.13529C13.2837 4.22896 13.3364 4.35602 13.3364 4.4885C13.3364 4.62098 13.2837 4.74804 13.1898 4.84171C13.0959 4.93539 12.9686 4.98802 12.8358 4.98802C12.703 4.98802 12.5757 4.93539 12.4818 4.84171L10.8358 3.19837L9.1898 4.84171C9.14335 4.88817 9.08817 4.92503 9.02743 4.95018C8.96668 4.97533 8.90156 4.98828 8.8358 4.98828C8.77003 4.98828 8.70491 4.97533 8.64416 4.95018C8.58342 4.92503 8.52824 4.88817 8.4818 4.84171Z" fill="#61CDD6"/>
</svg>
