<svg width="16" height="17" viewBox="0 0 16 17" fill="none" xmlns="http://www.w3.org/2000/svg">
<path fill-rule="evenodd" clip-rule="evenodd" d="M4.5 2.38086C4.63261 2.38086 4.75978 2.43342 4.85355 2.52698C4.94732 2.62054 5 2.74744 5 2.87975V13.8553C5 13.9876 4.94732 14.1145 4.85355 14.2081C4.75978 14.3017 4.63261 14.3542 4.5 14.3542C4.36739 14.3542 4.24021 14.3017 4.14645 14.2081C4.05268 14.1145 4 13.9876 4 13.8553V2.87975C4 2.74744 4.05268 2.62054 4.14645 2.52698C4.24021 2.43342 4.36739 2.38086 4.5 2.38086Z" fill="#9399A1"/>
<path fill-rule="evenodd" clip-rule="evenodd" d="M6.85463 11.5074C6.9012 11.5537 6.93814 11.6088 6.96335 11.6694C6.98855 11.73 7.00153 11.795 7.00153 11.8606C7.00153 11.9262 6.98855 11.9912 6.96335 12.0518C6.93814 12.1124 6.9012 12.1675 6.85463 12.2138L4.85463 14.2094C4.80819 14.2559 4.75301 14.2927 4.69227 14.3179C4.63152 14.343 4.5664 14.356 4.50063 14.356C4.43486 14.356 4.36974 14.343 4.309 14.3179C4.24825 14.2927 4.19308 14.2559 4.14663 14.2094L2.14663 12.2138C2.05274 12.1202 2 11.9931 2 11.8606C2 11.7281 2.05274 11.6011 2.14663 11.5074C2.24052 11.4137 2.36786 11.3611 2.50063 11.3611C2.63341 11.3611 2.76075 11.4137 2.85463 11.5074L4.50063 13.1508L6.14663 11.5074C6.19308 11.4609 6.24825 11.4241 6.309 11.3989C6.36974 11.3738 6.43486 11.3608 6.50063 11.3608C6.5664 11.3608 6.63152 11.3738 6.69227 11.3989C6.75301 11.4241 6.80819 11.4609 6.85463 11.5074Z" fill="#9399A1"/>
<path fill-rule="evenodd" clip-rule="evenodd" d="M10.8364 14.354C10.7038 14.354 10.5766 14.3014 10.4829 14.2079C10.3891 14.1143 10.3364 13.9874 10.3364 13.8551L10.3364 2.87954C10.3364 2.74722 10.3891 2.62033 10.4829 2.52677C10.5766 2.43321 10.7038 2.38065 10.8364 2.38065C10.969 2.38065 11.0962 2.43321 11.19 2.52677C11.2837 2.62033 11.3364 2.74722 11.3364 2.87954L11.3364 13.8551C11.3364 13.9874 11.2837 14.1143 11.19 14.2079C11.0962 14.3014 10.969 14.354 10.8364 14.354Z" fill="#9399A1"/>
<path fill-rule="evenodd" clip-rule="evenodd" d="M8.4818 5.22843C8.43523 5.18209 8.39829 5.12704 8.37308 5.06643C8.34788 5.00582 8.3349 4.94084 8.3349 4.87522C8.3349 4.8096 8.34788 4.74462 8.37308 4.68401C8.39829 4.6234 8.43523 4.56835 8.4818 4.522L10.4818 2.52644C10.5282 2.47998 10.5834 2.44312 10.6442 2.41797C10.7049 2.39282 10.77 2.37988 10.8358 2.37988C10.9016 2.37988 10.9667 2.39282 11.0274 2.41797C11.0882 2.44312 11.1433 2.47998 11.1898 2.52644L13.1898 4.522C13.2837 4.61568 13.3364 4.74274 13.3364 4.87522C13.3364 5.0077 13.2837 5.13475 13.1898 5.22843C13.0959 5.32211 12.9686 5.37474 12.8358 5.37474C12.703 5.37474 12.5757 5.32211 12.4818 5.22843L10.8358 3.58509L9.1898 5.22843C9.14335 5.27489 9.08817 5.31175 9.02743 5.3369C8.96668 5.36205 8.90156 5.375 8.8358 5.375C8.77003 5.375 8.70491 5.36205 8.64416 5.3369C8.58342 5.31175 8.52824 5.27489 8.4818 5.22843Z" fill="#9399A1"/>
</svg>
